<svg width="21" height="21" viewBox="0 0 21 21" fill="none" xmlns="http://www.w3.org/2000/svg">
<path fill-rule="evenodd" clip-rule="evenodd" d="M2 9C2 5.141 5.141 2 9 2C12.859 2 16 5.141 16 9C16 12.859 12.859 16 9 16C5.141 16 2 12.859 2 9ZM20 20C20.3905 19.6095 20.3905 18.9765 20 18.586L16.025 14.611C17.258 13.071 18 11.122 18 9C18 4.037 13.963 0 9 0C4.037 0 0 4.037 0 9C0 13.963 4.037 18 9 18C11.122 18 13.071 17.258 14.611 16.025L18.586 20C18.9765 20.3905 19.6095 20.3905 20 20Z" fill="#9E9B98"/>
</svg>
